<svg xmlns="http://www.w3.org/2000/svg" version="1.1" xmlns:xlink="http://www.w3.org/1999/xlink" xmlns:svgjs="http://svgjs.dev/svgjs" width="2000" height="1500" viewBox="0 0 2000 1500"><rect width="2000" height="1500" fill="#ffffff"></rect><g transform="matrix(0.75,0,0,0.75,249.78667664670684,-0.21332335329350371)"><svg viewBox="0 0 334 334" data-background-color="#ffffff" preserveAspectRatio="xMidYMid meet" height="2000" width="2000" xmlns="http://www.w3.org/2000/svg" xmlns:xlink="http://www.w3.org/1999/xlink"><g id="tight-bounds" transform="matrix(1,0,0,1,0.04749999999998522,0.04750000000001364)"><svg viewBox="0 0 333.90454557049503 333.90454557049503" height="333.90454557049503" width="333.90454557049503"><g><svg></svg></g><g><svg viewBox="0 0 333.90454557049503 333.90454557049503" height="333.90454557049503" width="333.90454557049503"><g><path d="M0 166.952c0-92.205 74.747-166.952 166.952-166.952 92.205 0 166.952 74.747 166.953 166.952 0 92.205-74.747 166.952-166.953 166.953-92.205 0-166.952-74.747-166.952-166.953zM166.952 329.892c89.989 0 162.94-72.951 162.94-162.94 0-89.989-72.951-162.94-162.94-162.94-89.989 0-162.94 72.951-162.94 162.94 0 89.989 72.951 162.94 162.94 162.94z" data-fill-palette-color="tertiary" fill="#77d4fc" stroke="transparent"></path><ellipse rx="160.27418187383762" ry="160.27418187383762" cx="166.95227278524752" cy="166.95227278524752" fill="#77d4fc" stroke="transparent" stroke-width="0" fill-opacity="1" data-fill-palette-color="tertiary"></ellipse></g><g transform="matrix(1,0,0,1,66.20524441579056,71.17305217166896)"><svg viewBox="0 0 201.4940567389139 191.55844122715712" height="191.55844122715712" width="201.4940567389139"><g><svg viewBox="0 0 201.4940567389139 191.55844122715712" height="191.55844122715712" width="201.4940567389139"><g><svg viewBox="0 0 213.1584412271571 202.64765818275862" height="191.55844122715712" width="201.4940567389139"><g transform="matrix(1,0,0,1,0,115.38135348546115)"><svg viewBox="0 0 213.1584412271571 87.26630469729749" height="87.26630469729749" width="213.1584412271571"><g id="textblocktransform"><svg viewBox="0 0 213.1584412271571 87.26630469729749" height="87.26630469729749" width="213.1584412271571" id="textblock"><g><svg viewBox="0 0 213.1584412271571 47.06727485674669" height="47.06727485674669" width="213.1584412271571"><g transform="matrix(1,0,0,1,0,0)"><svg width="213.1584412271571" viewBox="-0.65 -33.1 153.29 33.85" height="47.06727485674669" data-palette-color="#ffffff"><path d="M17.6-30.7L17.6-30.7Q16.25-30.7 15.4-30.45L15.4-30.45Q14.9-27.05 14.9-16.8 14.9-6.55 15.55-1.75L15.55-1.75Q18.05-1.5 21.05-0.8L21.05-0.8 20.9 0.4Q17.2 0 12.88 0 8.55 0 5.9 0.4L5.9 0.4 5.7-0.85Q7.95-1.55 10.5-1.9L10.5-1.9Q11.05-6 11.05-14.8L11.05-14.8 11.05-17.75Q11.05-22.9 10.4-30.45L10.4-30.45Q9.55-30.7 7.45-30.7 5.35-30.7 3.25-29.8L3.25-29.8Q2.6-27.7 2.25-24.2L2.25-24.2 1-24.2Q0.8-29.55-0.65-32.1L-0.65-32.1-0.35-33.1Q4.45-32.55 13.43-32.55 22.4-32.55 27.2-33.1L27.2-33.1 27.4-32.1Q25.75-30.35 25.18-28.65 24.6-26.95 24.45-24.2L24.45-24.2 23.2-24.2Q22.75-26.35 22.75-29.65L22.75-29.65Q20.6-30.7 17.6-30.7ZM35.45 0.75Q31.1 0.75 28.3-2.18 25.5-5.1 25.5-9.85 25.5-14.6 28.37-18.82 31.25-23.05 35.95-24.25L35.95-24.25Q40.6-24.25 43-21.55 45.4-18.85 45.4-14.1 45.4-9.35 42.6-5.15 39.8-0.95 35.45 0.75L35.45 0.75ZM34.6-21.15L34.6-21.15Q32.5-21.15 31.15-19.95L31.15-19.95Q29.5-16.8 29.5-12.7 29.5-8.6 31.35-5.48 33.2-2.35 36.3-2.35L36.3-2.35Q38.4-2.35 39.8-3.6L39.8-3.6Q41.4-6.65 41.4-11.03 41.4-15.4 39.72-18.28 38.05-21.15 34.6-21.15ZM52.3-5.5L52.3-5.5 52.4-3.4 52.4-3.2Q54.7-2.35 56.75-2.35 58.8-2.35 60.17-3.25 61.55-4.15 61.55-6.25L61.55-6.25Q61.55-7.8 56.3-10.5L56.3-10.5Q54.35-11.5 52.7-12.93 51.05-14.35 51.05-15.7L51.05-15.7Q51.05-18.35 53.87-21.03 56.7-23.7 59.2-24.25L59.2-24.25Q62.4-24.25 65.4-23.45L65.4-23.45 65.4-22.75Q63.45-20.35 63.25-17.5L63.25-17.5 62.15-17.5Q62.15-19.45 62.05-20.55L62.05-20.55Q60.1-21.15 58.35-21.15 56.6-21.15 55.22-20.48 53.85-19.8 53.85-18.3L53.85-18.3Q53.85-17.4 55.5-16.2 57.15-15 59.1-14.03 61.05-13.05 62.7-11.6 64.35-10.15 64.35-8.8L64.35-8.8Q64.35-5.75 61.57-2.93 58.8-0.1 55.95 0.75L55.95 0.75Q52.35 0.75 49.05-0.3L49.05-0.3 49.05-1Q51-3.4 51.2-6.25L51.2-6.25 52.3-6.25Q52.3-6.25 52.3-5.5ZM79.39 0.75Q75.04 0.75 72.24-2.18 69.44-5.1 69.44-9.85 69.44-14.6 72.32-18.82 75.19-23.05 79.89-24.25L79.89-24.25Q84.54-24.25 86.94-21.55 89.34-18.85 89.34-14.1 89.34-9.35 86.54-5.15 83.74-0.95 79.39 0.75L79.39 0.75ZM78.54-21.15L78.54-21.15Q76.44-21.15 75.09-19.95L75.09-19.95Q73.44-16.8 73.44-12.7 73.44-8.6 75.29-5.48 77.14-2.35 80.24-2.35L80.24-2.35Q82.34-2.35 83.74-3.6L83.74-3.6Q85.34-6.65 85.34-11.03 85.34-15.4 83.67-18.28 81.99-21.15 78.54-21.15ZM130.29-0.65L130.14 0.3Q127.74 0 126.07 0 124.39 0 122.99 0.1L122.99 0.1 122.99-0.6Q123.74-4.5 123.94-13.45L123.94-13.45Q123.94-13.85 123.94-14.25L123.94-14.25Q123.94-20.15 121.84-20.15L121.84-20.15Q120.04-20.15 117.44-17.7 114.84-15.25 113.94-13.15L113.94-13.15 113.74-1.55Q115.44-1.2 117.19-0.55L117.19-0.55 117.09 0.4Q114.29 0 112.54 0 110.79 0 109.39 0.1L109.39 0.1 109.39-0.6Q110.14-4.5 110.34-13.45L110.34-13.45Q110.34-13.85 110.34-14.25L110.34-14.25Q110.34-20.15 108.24-20.15L108.24-20.15Q106.44-20.15 103.87-17.7 101.29-15.25 100.39-13.15L100.39-13.15Q100.39-5.9 100.94-1.5L100.94-1.5Q102.29-1.2 104.09-0.55L104.09-0.55 103.99 0.4Q101.19 0 98.69 0 96.19 0 93.64 0.3L93.64 0.3 93.49-0.65Q94.99-1.3 96.44-1.65L96.44-1.65Q96.89-5.05 96.89-9.5L96.89-9.5 96.89-13.7Q96.89-18.3 96.54-21.85L96.54-21.85Q95.34-22.25 93.84-22.25L93.84-22.25 93.84-23.3Q97.04-23.45 100.59-24.25L100.59-24.25 100.94-24.05Q100.39-20.6 100.39-16.25L100.39-16.25 100.59-16.2Q102.19-18.55 104.79-21.03 107.39-23.5 109.49-24.25L109.49-24.25Q113.99-24.25 113.99-16.25L113.99-16.25 114.19-16.2Q115.79-18.55 118.39-21.03 120.99-23.5 123.09-24.25L123.09-24.25Q127.59-24.25 127.59-16.4L127.59-16.4Q127.59-16.05 127.59-15.7L127.59-15.7 127.34-1.65Q128.79-1.3 130.29-0.65L130.29-0.65ZM143.94-2.85L143.94-2.85Q147.09-2.85 150.09-5.5L150.09-5.5 150.64-5Q147.79-1.1 143.34 0.75L143.34 0.75Q138.94 0.75 136.74-2 134.54-4.75 134.54-9.65 134.54-14.55 137.29-18.78 140.04-23 144.64-24.25L144.64-24.25Q147.99-24.25 149.34-22.93 150.69-21.6 150.69-18.25L150.69-18.25Q150.69-16.35 150.19-15L150.19-15Q151.24-14.6 152.64-14.6L152.64-14.6 152.59-13.55Q152.29-13.55 151.94-13.55L151.94-13.55Q146.34-13.55 138.54-11.9L138.54-11.9Q138.54-5.25 141.14-3.6L141.14-3.6Q142.24-2.85 143.94-2.85ZM146.69-15.25Q146.69-18.55 146.06-19.85 145.44-21.15 143.44-21.15 141.44-21.15 139.99-19.95L139.99-19.95Q138.64-17.15 138.54-13.2L138.54-13.2Q142.64-14.55 146.69-15.25L146.69-15.25Z" opacity="1" transform="matrix(1,0,0,1,0,0)" fill="#ffffff" class="wordmark-text-0" data-fill-palette-color="quaternary" id="text-0"></path></svg></g></svg></g><g transform="matrix(1,0,0,1,0,58.178728835828025)"><svg viewBox="0 0 213.1584412271571 29.087575861469457" height="29.087575861469457" width="213.1584412271571"><g transform="matrix(1,0,0,1,0,0)"><svg width="213.1584412271571" viewBox="-0.711111088884 -36.21 335.07050500965204 45.72804878048781" height="29.087575861469457" data-palette-color="#ffffff"><path d="M14.01 0L14.01 0 0.34 0Q-0.24 0-0.52-0.45-0.81-0.9-0.66-1.54L-0.66-1.54 7.91-35.11Q8.2-36.21 9.4-36.21L9.4-36.21 10.86-36.21Q11.45-36.21 11.73-35.75 12.01-35.3 11.84-34.64L11.84-34.64 3.91-3.44 15.21-3.44Q15.65-3.44 15.86-3.1 16.06-2.76 15.94-2.29L15.94-2.29 15.6-1.05Q15.36 0 14.01 0ZM40.1-6.91L40.1-6.91Q39.42-3.25 41.47-2.86L41.47-2.86Q43.3-3.54 46.01-6.59L46.01-6.59Q46.47-7.01 47.01-6.69L47.01-6.69 47.96-6.1Q48.62-5.59 48.4-5L48.4-5Q47.45-3.2 44.89-1.17 42.32 0.85 40.76 0.56L40.76 0.56Q37.22-0.34 36.61-3.15L36.61-3.15Q35.9-6.91 37.85-13.48 39.81-20.04 43.3-23.39L43.3-23.39Q44.52-24.51 46.34-25.06 48.16-25.61 50.18-24.76 52.21-23.9 52.19-19.87 52.16-15.84 48.66-12.27 45.15-8.69 40.1-6.91ZM40.71-10.16L40.71-10.16Q43.06-11.16 44.73-12.5 46.4-13.84 47.49-15.77 48.57-17.7 48.57-19.73 48.57-21.75 47.4-21.75L47.4-21.75Q45.11-21.75 43.38-18.01 41.66-14.26 40.71-10.16ZM85.62-24.39L85.62-24.39Q85.82-25.56 86.77-25.56L86.77-25.56 87.92-25.61Q89.75-25.56 89.26-23.8L89.26-23.8 83.25-3.81Q84.82-4.96 86.35-7.1L86.35-7.1Q86.92-7.91 87.6-7.45L87.6-7.45 88.82-6.64Q89.6-6.1 89.06-5.4L89.06-5.4Q87.01-3 85.29-1.67 83.57-0.34 81.2 0.2L81.2 0.2Q80.52 0.29 80.3-0.34L80.3-0.34 79.37-3.1Q77.96-1.25 76.95-0.55 75.95 0.15 75.42 0.15L75.42 0.15 75.32 0.15Q74.9 0.15 74.09-0.43 73.27-1 72.46-1.93 71.66-2.86 71.3-3.96 70.95-5.05 71.35-7.95 71.75-10.84 73.63-16.04 75.51-21.24 77.49-23.29 79.47-25.34 82.45-25.29L82.45-25.29Q84.11-25.29 85.62-24.39ZM84.87-21.61L84.87-21.61Q82.2-23.1 80.53-21.67 78.86-20.24 77.26-15.84 75.66-11.45 75.18-8.95 74.71-6.45 74.78-5.54 74.86-4.64 75.66-4.22 76.47-3.81 78.33-5.86 80.2-7.91 81.61-11.47 83.01-15.04 84.87-21.61ZM117.89-24.34L116.45-18.7Q118.03-21.29 119.39-23 120.74-24.71 121.36-25.13 121.99-25.56 123.55-25.56L123.55-25.56 124.04-25.56Q125.5-25.56 125.04-24.44L125.04-24.44Q124.8-23.85 123.82-22.97 122.84-22.09 121.17-19.97 119.5-17.85 119.5-17.21L119.5-17.21Q119.5-15.89 120.74-14.75L120.74-14.75Q121.04-14.5 120.91-14.22 120.79-13.94 120.4-13.84L120.4-13.84 118.5-13.5Q117.69-13.35 117.26-13.67 116.84-13.99 115.79-15.94L115.79-15.94 111.95-1.1Q111.64 0 110.44 0L110.44 0 109 0Q107.58 0 107.9-1.15L107.9-1.15 114-24.39Q114.25-25.39 115.4-25.39L115.4-25.39 116.93-25.39Q117.59-25.39 117.81-25.17 118.03-24.95 117.89-24.34L117.89-24.34ZM150.59-23.95L146.83-11.35 152.03-19.95Q153.69-22.66 155.44-24.02 157.18-25.39 158.43-25.39L158.43-25.39 159.48-25.39Q160.28-25.39 160.73-25.12 161.19-24.85 161.47-23.9 161.75-22.95 161.19-21.09L161.19-21.09 155.59-0.71Q155.45 0 154.79 0L154.79 0 152.18 0Q151.44 0 151.79-1.2L151.79-1.2 157.03-18.36Q157.43-19.7 157.43-20.13 157.43-20.56 157.08-20.56 156.74-20.56 156.27-20.1 155.79-19.65 154.98-18.46L154.98-18.46Q154.03-17.09 152.69-14.92 151.35-12.74 149.3-9.55L149.3-9.55Q145.44-3.66 143.83-0.71L143.83-0.71Q143.44 0 142.63 0L142.63 0 141.24 0Q140.95 0 140.74-0.4 140.53-0.81 140.68-1.29L140.68-1.29 146.73-24.1Q146.98-25.39 147.73-25.39L147.73-25.39 149.78-25.39Q150.98-25.39 150.59-23.95L150.59-23.95ZM211.16-6.91L211.16-6.91Q210.48-3.25 212.53-2.86L212.53-2.86Q214.36-3.54 217.07-6.59L217.07-6.59Q217.53-7.01 218.07-6.69L218.07-6.69 219.02-6.1Q219.68-5.59 219.46-5L219.46-5Q218.51-3.2 215.95-1.17 213.38 0.85 211.82 0.56L211.82 0.56Q208.28-0.34 207.67-3.15L207.67-3.15Q206.96-6.91 208.92-13.48 210.87-20.04 214.36-23.39L214.36-23.39Q215.58-24.51 217.4-25.06 219.22-25.61 221.25-24.76 223.27-23.9 223.25-19.87 223.22-15.84 219.72-12.27 216.22-8.69 211.16-6.91ZM211.77-10.16L211.77-10.16Q214.12-11.16 215.79-12.5 217.46-13.84 218.55-15.77 219.63-17.7 219.63-19.73 219.63-21.75 218.46-21.75L218.46-21.75Q216.17-21.75 214.45-18.01 212.73-14.26 211.77-10.16ZM256.68-24.39L256.68-24.39Q256.88-25.56 257.83-25.56L257.83-25.56 258.98-25.61Q260.81-25.56 260.32-23.8L260.32-23.8 254.32-3.81Q255.88-4.96 257.42-7.1L257.42-7.1Q257.98-7.91 258.66-7.45L258.66-7.45 259.88-6.64Q260.66-6.1 260.13-5.4L260.13-5.4Q258.08-3 256.35-1.67 254.63-0.34 252.26 0.2L252.26 0.2Q251.58 0.29 251.36-0.34L251.36-0.34 250.43-3.1Q249.02-1.25 248.02-0.55 247.02 0.15 246.48 0.15L246.48 0.15 246.38 0.15Q245.97 0.15 245.15-0.43 244.33-1 243.52-1.93 242.72-2.86 242.36-3.96 242.01-5.05 242.41-7.95 242.82-10.84 244.7-16.04 246.58-21.24 248.55-23.29 250.53-25.34 253.51-25.29L253.51-25.29Q255.17-25.29 256.68-24.39ZM255.93-21.61L255.93-21.61Q253.27-23.1 251.59-21.67 249.92-20.24 248.32-15.84 246.72-11.45 246.25-8.95 245.77-6.45 245.84-5.54 245.92-4.64 246.72-4.22 247.53-3.81 249.4-5.86 251.26-7.91 252.67-11.47 254.07-15.04 255.93-21.61ZM288.95-25.71L288.95-25.71 289.7-25.71Q291.41-25.71 292.85-24.4 294.29-23.1 295.2-21.19L295.2-21.19Q295.71-20.14 294.86-19.6L294.86-19.6 293.34-18.75Q292.29-17.99 291.85-18.99L291.85-18.99Q291.8-19.09 291.45-19.92 291.1-20.75 290.88-21.11 290.66-21.46 290.11-21.9 289.56-22.34 288.85-22.46L288.85-22.46Q287.6-22.19 286.51-20.8 285.41-19.41 285.41-16.85L285.41-16.85Q285.41-15.75 285.93-15.32 286.46-14.89 287.8-14.6L287.8-14.6 289.19-14.31Q292.24-13.65 292.24-9.25L292.24-9.25Q292.24-6.64 290.29-3.25L290.29-3.25Q289.36-1.66 287.75-0.55 286.14 0.56 284.26 0.56L284.26 0.56 283.89 0.56Q281.99 0.56 280.5-0.77 279.01-2.1 278.4-3.48 277.79-4.86 278.4-5.54L278.4-5.54 279.5-6.45Q280.01-6.96 280.61-6.91 281.21-6.86 281.43-6.03 281.65-5.2 282.65-4.03 283.65-2.86 284.5-2.81L284.5-2.81Q285.99-3.05 287.09-4.58 288.19-6.1 288.19-8.08 288.19-10.06 287.82-10.61 287.46-11.16 286.14-11.45L286.14-11.45 285.04-11.69Q283.11-12.16 282.31-13.31 281.5-14.45 281.5-16.41L281.5-16.41Q281.5-19.65 283.82-22.68 286.14-25.71 288.95-25.71ZM331.83-25.39L331.83-25.39 333.74-25.39Q334.05-25.39 334.25-25 334.44-24.61 334.3-24.1L334.3-24.1 326.95 2.49Q325.75 7.1 322.99 8.59L322.99 8.59Q321.8 9.25 321.38 9.4L321.38 9.4Q320.38 9.84 318.45 8.64L318.45 8.64 313.35 5.76Q312.69 5.44 312.64 4.87 312.59 4.3 312.94 3.96L312.94 3.96 313.69 2.91Q314.5 2.05 315.35 2.49L315.35 2.49 320.89 5.91Q321.99 6.49 322.55 4.54L322.55 4.54 327.39-12.6 326.24-10.4 323.29-5.44Q321.7-2.71 320.05-1.35 318.4 0 317.13 0L317.13 0 316.84 0Q315.79 0 315.08-0.76L315.08-0.76Q313.35-2.66 314.3-6.1L314.3-6.1 319.4-24.71Q319.6-25.39 320.19-25.39L320.19-25.39 322.8-25.39Q323.56-25.39 323.19-24.19L323.19-24.19 318.14-6.86Q317.74-5.3 318.04-4.91L318.04-4.91Q318.6-4.05 320.58-7.01 322.55-9.96 330.64-24.71L330.64-24.71Q331.05-25.39 331.83-25.39Z" opacity="1" transform="matrix(1,0,0,1,0,0)" fill="#ffffff" class="slogan-text-1" data-fill-palette-color="quaternary" id="text-1"></path></svg></g></svg></g></svg></g></svg></g><g transform="matrix(1,0,0,1,40.713262274387006,0)"><svg viewBox="0 0 131.7319166783831 104.26989950637982" height="104.26989950637982" width="131.7319166783831"><g><svg xmlns="http://www.w3.org/2000/svg" xmlns:xlink="http://www.w3.org/1999/xlink" version="1.1" x="0" y="0" viewBox="20.00067243611007 31.25452448392808 60.0000435715735 47.49189620356451" enable-background="new 0 0 100 100" xml:space="preserve" height="104.26989950637982" width="131.7319166783831" class="icon-icon-0" data-fill-palette-color="quaternary" id="icon-0"><path d="M79.297 49.314L52.402 31.516A1.57 1.57 0 0 0 51.212 31.288L21.424 37.579A1.57 1.57 0 0 0 20.217 38.775L20.038 39.581A1.57 1.57 0 0 0 20.704 41.23L33.176 49.484 32.455 52.742C32.092 54.39 33.315 56.384 36.18 58.279 41.62 61.879 50.902 63.763 56.928 62.49 59.777 61.889 61.384 60.688 61.712 59.21L62.333 56.397 70.38 54.698C71.381 56.113 72.033 57.829 72.198 60.018A2.53 2.53 0 0 0 70.815 62.268C70.815 63.093 71.214 63.819 71.826 64.284 71.134 67.811 70.212 74.294 72.052 77.167 72.594 78.013 73.361 78.553 74.271 78.726A1.137 1.137 0 1 0 74.698 76.491C74.498 76.454 74.236 76.357 73.969 75.941 73.32 74.927 73.168 72.926 73.288 70.668 73.849 72.42 74.712 73.996 76.041 74.871A1.138 1.138 0 0 0 77.292 72.971C75.504 71.793 74.749 67.755 74.588 64.481A2.53 2.53 0 0 0 75.9 62.27 2.53 2.53 0 0 0 74.477 59.999C74.327 57.667 73.721 55.768 72.785 54.191L78.577 52.967A1.57 1.57 0 0 0 79.784 51.771L79.963 50.965A1.57 1.57 0 0 0 79.297 49.314M48.465 43.157C48.489 42.951 48.698 42.783 49.087 42.701 49.86 42.538 51.058 42.781 51.757 43.245 52.108 43.475 52.267 43.72 52.241 43.926L52.127 44.489H52.126C52.101 44.694 51.892 44.861 51.505 44.943 50.73 45.107 49.535 44.864 48.835 44.401 48.484 44.169 48.325 43.925 48.35 43.72z" fill="#ffffff" data-fill-palette-color="quaternary"></path></svg></g></svg></g><g></g></svg></g></svg></g></svg></g></svg></g><defs></defs></svg><rect width="333.90454557049503" height="333.90454557049503" fill="none" stroke="none" visibility="hidden"></rect></g></svg></g></svg>